<?xml version="1.0" encoding="UTF-8"?>
<svg version="1.1" xmlns="http://www.w3.org/2000/svg" width="1472" height="736">
<path d="M0 0 C485.76 0 971.52 0 1472 0 C1472 242.88 1472 485.76 1472 736 C986.24 736 500.48 736 0 736 C0 493.12 0 250.24 0 0 Z " fill="#260F4B" transform="translate(0,0)"/>
<path d="M0 0 C0.99 0.495 0.99 0.495 2 1 C1.01 1.495 1.01 1.495 0 2 C0 1.34 0 0.68 0 0 Z M-2 2 C-1.34 2.33 -0.68 2.66 0 3 C-0.845625 3.71285156 -1.69125 4.42570313 -2.5625 5.16015625 C-5.51049251 7.64744328 -8.45335996 10.14070854 -11.39355469 12.63720703 C-12.67950173 13.72811226 -13.96820343 14.81577002 -15.2578125 15.90234375 C-26.04858157 24.80932779 -26.04858157 24.80932779 -34 36 C-35.23100669 37.26905105 -36.50619975 38.49609423 -37.8125 39.6875 C-41.37146683 43.13725666 -43.60149474 46.50418164 -45.84765625 50.890625 C-48.17596589 55.15261552 -51.48555852 58.67052912 -55 62 C-52.48182138 52.84298684 -46.3930701 44.88701592 -40 38 C-39.34 38 -38.68 38 -38 38 C-37.7421875 37.43796875 -37.484375 36.8759375 -37.21875 36.296875 C-35.85830223 33.73295421 -34.27211038 31.54773635 -32.5 29.25 C-31.8915625 28.45078125 -31.283125 27.6515625 -30.65625 26.828125 C-30.1096875 26.22484375 -29.563125 25.6215625 -29 25 C-28.34 25 -27.68 25 -27 25 C-26.67 24.01 -26.34 23.02 -26 22 C-25.34 22 -24.68 22 -24 22 C-24 21.34 -24 20.68 -24 20 C-22.64453125 18.66796875 -22.64453125 18.66796875 -20.8125 17.1875 C-18.47180118 15.26208645 -16.41811592 13.39105154 -14.3125 11.1875 C-12.0740614 9.07005808 -11.00607197 8.334008 -8 8 C-8 7.34 -8 6.68 -8 6 C-7.34 6 -6.68 6 -6 6 C-6 5.34 -6 4.68 -6 4 C-4.125 2.9375 -4.125 2.9375 -2 2 Z " fill="#2D1F5D" transform="translate(960,242)"/>
<path d="M0 0 C25.49830627 -2.16495053 49.91957821 9.43223919 69.95703125 24.17578125 C70.63121094 24.77777344 71.30539062 25.37976563 72 26 C72 26.66 72 27.32 72 28 C68.41250744 26.3770867 65.42672395 24.18900958 62.25 21.875 C43.24271551 8.45247079 23.06981214 3.29682376 0 2 C0 1.34 0 0.68 0 0 Z " fill="#624D83" transform="translate(1087,304)"/>
<path d="M0 0 C-6.34873502 3.10682778 -12.52431107 5.63004948 -19.39453125 7.32421875 C-22.05673073 7.98113216 -22.05673073 7.98113216 -24.828125 8.95703125 C-28.49073241 10.16136152 -32.1886432 11.11241886 -35.9375 12 C-37.03880249 12.2616394 -37.03880249 12.2616394 -38.16235352 12.52856445 C-44.44637636 13.97094291 -50.71867472 14.87900127 -57.12109375 15.60546875 C-59.93605378 15.83401303 -59.93605378 15.83401303 -62 17 C-63.99960012 17.039992 -66.00047242 17.04346799 -68 17 C-67.67 16.34 -67.34 15.68 -67 15 C-64.76171875 14.5078125 -64.76171875 14.5078125 -61.6875 14.125 C-49.68913583 12.4431101 -37.58529456 10.36889537 -26.0546875 6.59375 C-22.73549297 5.63459112 -19.43439744 5.31799976 -16 5 C-16 4.34 -16 3.68 -16 3 C-13.89936424 2.30178583 -11.79434263 1.61675528 -9.6875 0.9375 C-8.51574219 0.55464844 -7.34398437 0.17179687 -6.13671875 -0.22265625 C-3 -1 -3 -1 0 0 Z " fill="#301953" transform="translate(1136,122)"/>
<path d="M0 0 C0.66 0.33 1.32 0.66 2 1 C-2.48298099 7.0288365 -8.15620811 11.33867627 -14 16 C-15.19096326 17.01679077 -16.37930713 18.03667761 -17.5625 19.0625 C-20 21 -20 21 -22 21 C-22 21.66 -22 22.32 -22 23 C-23.32 23.33 -24.64 23.66 -26 24 C-26 24.66 -26 25.32 -26 26 C-28.2863012 27.36402043 -30.57821749 28.71634274 -32.875 30.0625 C-33.52597656 30.45244141 -34.17695312 30.84238281 -34.84765625 31.24414062 C-36.53065725 32.22444533 -38.26296199 33.11898432 -40 34 C-40.66 33.67 -41.32 33.34 -42 33 C-40.27278316 31.72651788 -38.54313762 30.45632943 -36.8125 29.1875 C-35.84957031 28.47980469 -34.88664063 27.77210938 -33.89453125 27.04296875 C-26.74952199 22 -26.74952199 22 -24 22 C-24 21.34 -24 20.68 -24 20 C-18.58823529 16 -18.58823529 16 -16 16 C-16 15.34 -16 14.68 -16 14 C-14.35 13.34 -12.7 12.68 -11 12 C-11 11.34 -11 10.68 -11 10 C-9.35546875 8.37890625 -9.35546875 8.37890625 -7.1875 6.5625 C-4.68897282 4.45536324 -2.2757944 2.34758602 0 0 Z " fill="#321D56" transform="translate(966,648)"/>
<path d="M0 0 C0.66 0.33 1.32 0.66 2 1 C-2.296875 5.00390625 -2.296875 5.00390625 -4 6 C-6.203125 5.65234375 -6.203125 5.65234375 -8 5 C-6.71475739 4.13619741 -5.42157581 3.28419631 -4.125 2.4375 C-3.04605469 1.72400391 -3.04605469 1.72400391 -1.9453125 0.99609375 C-1.30335938 0.66738281 -0.66140625 0.33867188 0 0 Z M-9 6 C-9 6.99 -9 7.98 -9 9 C-10.94921875 10.65625 -10.94921875 10.65625 -13.6875 12.5 C-19.00327981 16.20033504 -23.89988344 20.21387457 -28.75854492 24.49414062 C-32.7931345 28 -32.7931345 28 -35 28 C-35 27.34 -35 26.68 -35 26 C-29.52380952 21 -29.52380952 21 -27 21 C-27 20.34 -27 19.68 -27 19 C-26.34 19 -25.68 19 -25 19 C-25 18.34 -25 17.68 -25 17 C-22.92513234 15.41351061 -20.85806633 13.94396868 -18.6875 12.5 C-18.09259766 12.09652344 -17.49769531 11.69304688 -16.88476562 11.27734375 C-14.26592076 9.50413706 -11.63150863 7.75433909 -9 6 Z " fill="#331E58" transform="translate(206,600)"/>
<path d="M0 0 C0.33 0.99 0.66 1.98 1 3 C-0.484375 5.6796875 -0.484375 5.6796875 -2.75 8.875 C-3.15105957 9.4407373 -3.55211914 10.00647461 -3.96533203 10.58935547 C-9.38002427 18.095382 -15.31679887 25.58235653 -22 32 C-22 27.86589508 -19.76197719 26.16284827 -17.125 23.25 C-11.77578387 17.1661652 -7.28592413 10.72040546 -2.8984375 3.921875 C-1 1 -1 1 0 0 Z " fill="#47326B" transform="translate(991,616)"/>
<path d="M0 0 C0.66 0.33 1.32 0.66 2 1 C0.42040347 2.29623379 -1.16383413 3.58681327 -2.75 4.875 C-3.63171875 5.59429687 -4.5134375 6.31359375 -5.421875 7.0546875 C-7.58176924 8.68442588 -9.539766 9.90784005 -12 11 C-12 11.66 -12 12.32 -12 13 C-13.65437701 14.38427464 -15.31053107 15.7664929 -16.9765625 17.13671875 C-20.47191157 20.35540891 -23.20361545 24.17515792 -26 28 C-26.33 27.01 -26.66 26.02 -27 25 C-8.34752531 4.26434515 -8.34752531 4.26434515 0 0 Z " fill="#321B54" transform="translate(167,104)"/>
<path d="M0 0 C0.33 0 0.66 0 1 0 C1.32059644 20.41130667 1.32059644 20.41130667 -2 27 C-2.34053488 29.15523338 -2.34053488 29.15523338 -2.4375 31.375 C-2.80263537 35.46586853 -3.8927783 38.42688494 -6 42 C-7.08639706 38.74080881 -6.93440892 37.93809581 -6.07421875 34.74609375 C-5.85531982 33.89942139 -5.6364209 33.05274902 -5.41088867 32.18041992 C-5.17217041 31.27525635 -4.93345215 30.37009277 -4.6875 29.4375 C-2.21545744 19.65902823 -0.82135838 10.04018673 0 0 Z " fill="#351B5C" transform="translate(1039,544)"/>
<path d="M0 0 C1 3 1 3 0.22143555 5.12670898 C-2.99620793 11.27734161 -6.45622423 17.20960884 -10.1875 23.0625 C-10.72052734 23.91521484 -11.25355469 24.76792969 -11.80273438 25.64648438 C-12.31513672 26.45537109 -12.82753906 27.26425781 -13.35546875 28.09765625 C-14.04612427 29.18832397 -14.04612427 29.18832397 -14.75073242 30.30102539 C-16 32 -16 32 -18 33 C-16.32387169 28.23380274 -13.78541709 24.1152556 -11.1875 19.8125 C-7.83729306 14.20374686 -4.64388858 8.59495388 -1.83984375 2.6875 C-1 1 -1 1 0 0 Z " fill="#6F598F" transform="translate(1263,0)"/>
<path d="M0 0 C7.71447806 3.46641745 12.69534737 10.65001574 17.5625 17.3125 C18.01641113 17.92319336 18.47032227 18.53388672 18.93798828 19.16308594 C20.19140625 20.92578125 20.19140625 20.92578125 22 24 C21.67 24.99 21.34 25.98 21 27 C20.52691406 26.33355469 20.05382813 25.66710937 19.56640625 24.98046875 C11.66999328 13.20068846 11.66999328 13.20068846 1.734375 3.3125 C1.16203125 2.879375 0.5896875 2.44625 0 2 C0 1.34 0 0.68 0 0 Z " fill="#3B265E" transform="translate(1159,332)"/>
<path d="M0 0 C0.66 0.33 1.32 0.66 2 1 C-4.18281233 5.39007907 -10.44858216 8.86654723 -17.375 11.9375 C-18.26316406 12.34806641 -19.15132812 12.75863281 -20.06640625 13.18164062 C-20.91847656 13.56384766 -21.77054688 13.94605469 -22.6484375 14.33984375 C-23.41333496 14.68394287 -24.17823242 15.02804199 -24.96630859 15.38256836 C-27 16 -27 16 -30 15 C-29.47720459 14.77868408 -28.95440918 14.55736816 -28.41577148 14.3293457 C-21.11880501 11.17129076 -14.17741896 7.4317459 -7.20117188 3.62695312 C-6.30076172 3.14548828 -5.40035156 2.66402344 -4.47265625 2.16796875 C-3.66062744 1.72735107 -2.84859863 1.2867334 -2.01196289 0.83276367 C-1.34801514 0.55795166 -0.68406738 0.28313965 0 0 Z " fill="#3F2A63" transform="translate(1166,105)"/>
<path d="M0 0 C0.66 0.33 1.32 0.66 2 1 C1.21496094 1.7734375 0.42992187 2.546875 -0.37890625 3.34375 C-10.40163522 13.05980843 -10.40163522 13.05980843 -19 24 C-19.66 24 -20.32 24 -21 24 C-16.63492117 14.52154311 -7.33987584 7.23140477 0 0 Z " fill="#3D2861" transform="translate(169,628)"/>
<path d="M0 0 C1.14141882 3.42425647 0.92048291 3.84302902 -0.4765625 6.984375 C-0.81816406 7.75523437 -1.15976562 8.52609375 -1.51171875 9.3203125 C-2.06279297 10.52300781 -2.06279297 10.52300781 -2.625 11.75 C-3.14126953 12.92949219 -3.14126953 12.92949219 -3.66796875 14.1328125 C-5.95973264 19.22374188 -8.61613218 23.55941557 -12 28 C-12.33 27.34 -12.66 26.68 -13 26 C-11.86201182 23.61865437 -10.67066632 21.35615669 -9.375 19.0625 C-5.94294997 12.82986704 -2.82590692 6.53490976 0 0 Z " fill="#57487C" transform="translate(1005,588)"/>
<path d="M0 0 C0 0.99 0 1.98 0 3 C-1.42903823 4.26287099 -2.86873585 5.51670878 -4.37109375 6.69140625 C-6.1763751 8.08719245 -6.1763751 8.08719245 -8.25 10.3125 C-12.23391353 14.20587004 -16.61653629 17.56983325 -21 21 C-21.66 20.67 -22.32 20.34 -23 20 C-20.60556157 17.91505907 -18.20919922 15.83234146 -15.8125 13.75 C-15.13896484 13.16347656 -14.46542969 12.57695313 -13.77148438 11.97265625 C-10.23716738 8.90383467 -6.66621512 5.91140613 -3 3 C-1.9826127 2.01769502 -0.97403883 1.02530403 0 0 Z " fill="#533E76" transform="translate(1215,68)"/>
<path d="M0 0 C7.21421494 3.33081839 13.61807472 7.27513602 20 12 C20.75539063 12.52335937 21.51078125 13.04671875 22.2890625 13.5859375 C23.13597656 14.28589844 23.13597656 14.28589844 24 15 C24 15.66 24 16.32 24 17 C20.27278503 15.31732528 17.06166413 12.99171159 13.75 10.625 C9.00346338 7.27721737 4.29920064 4.38983558 -1 2 C-0.67 1.34 -0.34 0.68 0 0 Z " fill="#513C75" transform="translate(1135,315)"/>
<path d="M0 0 C-3.18970738 3.18970738 -7.3204469 4.45161227 -11.4375 6.1875 C-12.30955078 6.56841797 -13.18160156 6.94933594 -14.08007812 7.34179688 C-14.91861328 7.69693359 -15.75714844 8.05207031 -16.62109375 8.41796875 C-17.3886499 8.74563232 -18.15620605 9.0732959 -18.94702148 9.41088867 C-21 10 -21 10 -24 9 C-19.19309399 6.07405721 -14.38941469 3.85106139 -9.13671875 1.83203125 C-5.73200624 0.5062474 -3.72524745 -0.09803283 0 0 Z " fill="#48336C" transform="translate(1176,718)"/>
<path d="M0 0 C-3.51917594 1.97073852 -7.12550172 2.92022179 -11 4 C-13.30091481 4.82397625 -15.59814641 5.65401224 -17.88671875 6.51171875 C-20.30794538 7.07115189 -21.64447887 6.66900372 -24 6 C-21.31707555 4.98598131 -18.62974283 3.98871449 -15.9375 3 C-15.18533203 2.71382812 -14.43316406 2.42765625 -13.65820312 2.1328125 C-8.87663136 0.39405913 -5.0863079 -0.3242268 0 0 Z " fill="#412C65" transform="translate(1200,711)"/>
<path d="M0 0 C-7.2497867 3.67397314 -13.93079814 5.95428138 -22 7 C-21.34 6.34 -20.68 5.68 -20 5 C-18.68 5 -17.36 5 -16 5 C-16 4.34 -16 3.68 -16 3 C-13.89936424 2.30178583 -11.79434263 1.61675528 -9.6875 0.9375 C-8.51574219 0.55464844 -7.34398437 0.17179687 -6.13671875 -0.22265625 C-3 -1 -3 -1 0 0 Z " fill="#36215A" transform="translate(1136,122)"/>
<path d="M0 0 C0.66 0.33 1.32 0.66 2 1 C-2.24197704 6.65596939 -7.4045986 10.71924631 -13 15 C-13 14.01 -13 13.02 -13 12 C-12.34 12 -11.68 12 -11 12 C-11 11.34 -11 10.68 -11 10 C-9.35546875 8.37890625 -9.35546875 8.37890625 -7.1875 6.5625 C-4.68897282 4.45536324 -2.2757944 2.34758602 0 0 Z " fill="#3C2760" transform="translate(966,648)"/>
<path d="M0 0 C0.33 0.66 0.66 1.32 1 2 C-2.87718653 8.13532814 -7.08293044 13.66105169 -12 19 C-12 15.35838005 -11.01418023 13.98397071 -9 11 C-8.30390625 10.30970703 -8.30390625 10.30970703 -7.59375 9.60546875 C-5.79600066 7.79450066 -4.32678195 5.86519331 -2.8125 3.8125 C-2.28269531 3.09707031 -1.75289062 2.38164063 -1.20703125 1.64453125 C-0.80871094 1.10183594 -0.41039062 0.55914063 0 0 Z " fill="#381E5E" transform="translate(1082,693)"/>
<path d="M0 0 C1.23027758 3.69083274 0.60206654 4.79888197 -0.75 8.375 C-1.09546875 9.31085937 -1.4409375 10.24671875 -1.796875 11.2109375 C-2.99070958 13.97846312 -4.39016269 16.45571689 -6 19 C-7.28357735 15.14926794 -6.42743265 14.20288967 -4.6875 10.625 C-3.00175573 7.11826551 -1.40552834 3.62929852 0 0 Z " fill="#381D5F" transform="translate(1111,637)"/>
<path d="M0 0 C0.66 0.33 1.32 0.66 2 1 C0.28061972 2.49053106 -1.45092813 3.96703425 -3.1875 5.4375 C-4.63189453 6.67306641 -4.63189453 6.67306641 -6.10546875 7.93359375 C-8.92209238 9.94438174 -10.60635331 10.6587741 -14 11 C-11.47211993 8.20127563 -9.79588866 6.54226981 -6 6 C-6 5.34 -6 4.68 -6 4 C-4.03852126 2.61061923 -2.03833424 1.2739589 0 0 Z " fill="#3C1F61" transform="translate(956,693)"/>
<path d="M0 0 C-2.26404542 1.36680153 -4.53501021 2.71844445 -6.8125 4.0625 C-7.45509766 4.45244141 -8.09769531 4.84238281 -8.75976562 5.24414062 C-10.4628915 6.24130759 -12.22945858 7.12812687 -14 8 C-14.99 7.67 -15.98 7.34 -17 7 C-15.41779413 6.03980636 -13.83418669 5.08192202 -12.25 4.125 C-10.92742187 3.32449219 -10.92742187 3.32449219 -9.578125 2.5078125 C-8.72734375 2.01023437 -7.8765625 1.51265625 -7 1 C-6.29359375 0.58492187 -5.5871875 0.16984375 -4.859375 -0.2578125 C-3 -1 -3 -1 0 0 Z " fill="#2D1850" transform="translate(225,592)"/>
<path d="M0 0 C0.66 0.33 1.32 0.66 2 1 C0.39676273 2.77168246 -1.20755139 4.54236892 -2.8125 6.3125 C-3.26431641 6.81201172 -3.71613281 7.31152344 -4.18164062 7.82617188 C-6.40219821 10.27364776 -8.63155925 12.69450785 -11 15 C-10.52042767 10.71446004 -7.7812778 8.23068595 -4.9375 5.25 C-4.46505859 4.74339844 -3.99261719 4.23679687 -3.50585938 3.71484375 C-2.34369289 2.47050387 -1.17269839 1.23441936 0 0 Z " fill="#3F2559" transform="translate(151,117)"/>
<path d="M0 0 C0.66 0.33 1.32 0.66 2 1 C-3.13175381 5.3520996 -7.31636048 8.72015413 -14 10 C-11.19533807 7.00618646 -8.38815731 4.8006379 -4.875 2.6875 C-4.00617188 2.15511719 -3.13734375 1.62273437 -2.2421875 1.07421875 C-1.50226563 0.71972656 -0.76234375 0.36523438 0 0 Z " fill="#47326B" transform="translate(1182,95)"/>
<path d="M0 0 C2.31 0 4.62 0 7 0 C6.34 1.65 5.68 3.3 5 5 C4.34 4.67 3.68 4.34 3 4 C2.67 4.66 2.34 5.32 2 6 C0 5 0 5 -1 2 C-0.67 1.34 -0.34 0.68 0 0 Z " fill="#1D0840" transform="translate(114,688)"/>
<path d="M0 0 C1 2 1 2 0.44140625 3.9453125 C0.15136719 4.66460938 -0.13867188 5.38390625 -0.4375 6.125 C-0.72496094 6.84945312 -1.01242188 7.57390625 -1.30859375 8.3203125 C-1.53675781 8.87460937 -1.76492187 9.42890625 -2 10 C-2.66 10 -3.32 10 -4 10 C-4.33 8.35 -4.66 6.7 -5 5 C-4.01 4.67 -3.02 4.34 -2 4 C-0.79117904 1.99983534 -0.79117904 1.99983534 0 0 Z " fill="#1E0940" transform="translate(110,708)"/>
<path d="M0 0 C0.66 0.33 1.32 0.66 2 1 C1.06981474 2.46300982 0.13055973 3.92025579 -0.8125 5.375 C-1.33457031 6.18710938 -1.85664063 6.99921875 -2.39453125 7.8359375 C-4 10 -4 10 -7 12 C-5.63855967 6.80177328 -3.53269829 3.90456127 0 0 Z " fill="#1F0539" transform="translate(141,131)"/>
<path d="M0 0 C1.0625 1.8125 1.0625 1.8125 2 4 C1.67 4.99 1.34 5.98 1 7 C0.01 7.33 -0.98 7.66 -2 8 C-2.6875 6.25 -2.6875 6.25 -3 4 C-1.5625 1.75 -1.5625 1.75 0 0 Z " fill="#1E0740" transform="translate(116,704)"/>
<path d="M0 0 C0.65234375 1.734375 0.65234375 1.734375 1 4 C0.00390625 6.140625 0.00390625 6.140625 -1.4375 8.25 C-1.91058594 8.95640625 -2.38367188 9.6628125 -2.87109375 10.390625 C-3.24363281 10.92171875 -3.61617187 11.4528125 -4 12 C-5.11353866 8.25373781 -4.80746732 6.52456128 -3 3 C-1.375 1.1875 -1.375 1.1875 0 0 Z " fill="#2D1F5F" transform="translate(899,313)"/>
<path d="M0 0 C-1.05041579 2.86477034 -1.70124563 3.83913226 -4.4375 5.3125 C-7 6 -7 6 -10 5 C-8.71186658 4.16121545 -7.41936744 3.32913217 -6.125 2.5 C-5.40570312 2.0359375 -4.68640625 1.571875 -3.9453125 1.09375 C-2 0 -2 0 0 0 Z " fill="#2C1750" transform="translate(922,682)"/>
<path d="M0 0 C-0.8125 1.9375 -0.8125 1.9375 -2 4 C-2.99 4.33 -3.98 4.66 -5 5 C-5.33 3.35 -5.66 1.7 -6 0 C-3 -1 -3 -1 0 0 Z " fill="#1F0A42" transform="translate(142,657)"/>
<path d="M0 0 C0.66 0.99 1.32 1.98 2 3 C0.02 5.97 -1.96 8.94 -4 12 C-4.33 11.34 -4.66 10.68 -5 10 C-4.00390625 7.6171875 -4.00390625 7.6171875 -2.5625 4.875 C-1.85287109 3.50988281 -1.85287109 3.50988281 -1.12890625 2.1171875 C-0.75636719 1.41851563 -0.38382813 0.71984375 0 0 Z " fill="#4D3870" transform="translate(997,604)"/>
<path d="M0 0 C1 3 1 3 0.22265625 5.04296875 C-0.16019531 5.75066406 -0.54304688 6.45835938 -0.9375 7.1875 C-1.31777344 7.90292969 -1.69804688 8.61835938 -2.08984375 9.35546875 C-2.54037109 10.16951172 -2.54037109 10.16951172 -3 11 C-3.66 10.34 -4.32 9.68 -5 9 C-3.35 6.03 -1.7 3.06 0 0 Z " fill="#665286" transform="translate(1263,0)"/>
<path d="M0 0 C1.24546405 2.49092811 0.7767578 3.41080733 0 6 C-0.66 6 -1.32 6 -2 6 C-2.66 7.32 -3.32 8.64 -4 10 C-3.51171875 3.9453125 -3.51171875 3.9453125 -3 2 C-2.01 1.34 -1.02 0.68 0 0 Z " fill="#1E0940" transform="translate(111,717)"/>
<path d="M0 0 C1 2 1 2 0.25 4.5625 C-1 7 -1 7 -4 8 C-4.33 8.66 -4.66 9.32 -5 10 C-5 6.60406522 -4.47834052 5.93380119 -2.5 3.3125 C-2.0359375 2.68988281 -1.571875 2.06726563 -1.09375 1.42578125 C-0.7328125 0.95527344 -0.371875 0.48476563 0 0 Z " fill="#381C5E" transform="translate(1095,672)"/>
<path d="M0 0 C0.66 0.66 1.32 1.32 2 2 C-2.625 7.875 -2.625 7.875 -6 9 C-4.47291037 5.56404834 -2.40072955 2.88087546 0 0 Z " fill="#412C65" transform="translate(974,639)"/>
<path d="M0 0 C0.66 0.33 1.32 0.66 2 1 C0.60203108 3.79593783 -1.13474989 3.95173777 -4 5 C-4.99 5.495 -4.99 5.495 -6 6 C-6.33 5.01 -6.66 4.02 -7 3 C-4.69631264 1.93347808 -2.35981813 0.93578995 0 0 Z " fill="#3C1D5E" transform="translate(361,359)"/>
<path d="M0 0 C2.475 0.99 2.475 0.99 5 2 C4.34 3.65 3.68 5.3 3 7 C1.5 5.75 1.5 5.75 0 4 C0 2.68 0 1.36 0 0 Z " fill="#1E0940" transform="translate(120,679)"/>
<path d="M0 0 C0.66 1.32 1.32 2.64 2 4 C1.01 4 0.02 4 -1 4 C-0.67 4.99 -0.34 5.98 0 7 C-0.66 7 -1.32 7 -2 7 C-2.33 7.66 -2.66 8.32 -3 9 C-2.5020163 5.26512223 -2.12508244 3.18762365 0 0 Z " fill="#200B44" transform="translate(997,609)"/>
<path d="M0 0 C3.86933162 0.57323431 6.15222057 2.38953552 9 5 C9 5.66 9 6.32 9 7 C5.18315774 5.44499019 2.80804268 2.96404505 0 0 Z " fill="#453069" transform="translate(1150,325)"/>
<path d="M0 0 C-3.6678852 1.96189209 -6.87248551 3.39301257 -11 4 C-11 3.34 -11 2.68 -11 2 C-3.57142857 -1.57142857 -3.57142857 -1.57142857 0 0 Z " fill="#241B58" transform="translate(1003,220)"/>
<path d="M0 0 C0.99 0.33 1.98 0.66 3 1 C2.67 2.32 2.34 3.64 2 5 C0.68 5.33 -0.64 5.66 -2 6 C-1.34 4.02 -0.68 2.04 0 0 Z " fill="#1E043A" transform="translate(131,146)"/>
<path d="M0 0 C4.42857143 5.14285714 4.42857143 5.14285714 5 9 C2.33264727 6.51047079 0.44253657 4.36591866 -1 1 C-0.67 0.67 -0.34 0.34 0 0 Z " fill="#331E57" transform="translate(1176,350)"/>
<path d="M0 0 C0 2 0 2 -2.375 4.625 C-5 7 -5 7 -7 7 C-3.86206897 0 -3.86206897 0 0 0 Z " fill="#563F79" transform="translate(1223,61)"/>
</svg>
